<?xml version="1.0" standalone="no"?>
<!DOCTYPE svg PUBLIC "-//W3C//DTD SVG 20010904//EN"
 "http://www.w3.org/TR/2001/REC-SVG-20010904/DTD/svg10.dtd">
<svg version="1.0" xmlns="http://www.w3.org/2000/svg"
 width="369.000000pt" height="369.000000pt" viewBox="0 0 369.000000 369.000000"
 preserveAspectRatio="xMidYMid meet">
<metadata>
Created by potrace 1.11, written by Peter Selinger 2001-2013
</metadata>
<g transform="translate(0.000000,369.000000) scale(0.100000,-0.100000)"
fill="#000000" stroke="none">
<path d="M2801 3538 c-30 -4 -85 -25 -124 -46 -66 -36 -172 -131 -191 -172
-14 -31 -30 -24 -94 43 -39 39 -85 75 -129 97 -65 33 -72 35 -173 35 -97 0
-110 -2 -170 -31 -36 -17 -76 -41 -90 -54 -14 -12 -32 -27 -40 -34 -32 -24
-97 -113 -117 -161 -39 -94 -48 -139 -48 -250 0 -89 4 -123 23 -176 21 -61
103 -215 136 -256 87 -108 130 -156 213 -239 167 -166 441 -374 493 -374 24 0
50 17 185 125 223 178 417 392 473 520 66 155 83 198 107 280 60 205 14 411
-124 554 -54 57 -143 121 -186 134 -38 12 -90 14 -144 5z"/>
<path d="M364 3339 c-24 -31 -24 -38 3 -53 22 -12 24 -15 9 -16 -11 0 -17 -3
-13 -6 3 -3 38 0 77 7 59 10 73 10 80 -1 4 -7 12 -10 17 -7 6 4 21 -5 34 -19
12 -13 29 -22 37 -19 8 3 10 1 5 -8 -4 -6 -8 -32 -9 -57 -15 -878 -17 -911
-60 -951 -21 -20 -33 -22 -123 -21 l-99 1 -13 -31 c-11 -28 -11 -32 9 -48 19
-16 47 -18 239 -18 204 -1 324 -7 367 -19 12 -3 16 -1 12 6 -5 7 3 11 19 11
20 0 26 4 21 15 -3 9 0 15 9 15 21 0 19 23 -3 36 -10 7 -64 15 -120 19 -142
10 -134 -10 -131 348 2 155 3 363 4 462 1 198 11 244 59 266 14 7 23 16 20 20
-3 5 10 9 28 9 42 0 78 10 78 21 0 19 -40 29 -82 20 -28 -7 -46 -6 -55 0 -7 7
-18 7 -28 2 -9 -5 -42 -6 -73 -2 -31 4 -84 10 -117 13 -190 19 -190 19 -201 5z
m46 -34 c0 -8 -4 -15 -10 -15 -5 0 -7 7 -4 15 4 8 8 15 10 15 2 0 4 -7 4 -15z
m43 -22 c-7 -2 -19 -2 -25 0 -7 3 -2 5 12 5 14 0 19 -2 13 -5z"/>
<path d="M953 3300 c4 -15 0 -20 -14 -20 -10 0 -19 -4 -19 -10 0 -18 35 -11
53 10 19 23 15 40 -10 40 -10 0 -14 -6 -10 -20z"/>
<path d="M2462 1637 c-32 -18 -46 -43 -73 -127 -13 -41 -24 -77 -24 -80 -1 -3
-11 -36 -23 -75 -12 -38 -38 -124 -58 -190 -20 -66 -45 -149 -56 -185 -11 -36
-24 -83 -30 -105 -6 -22 -14 -44 -18 -50 -4 -5 -13 -32 -20 -60 -7 -27 -21
-69 -31 -92 -10 -24 -19 -51 -19 -61 0 -10 -4 -22 -8 -27 -5 -6 -17 -39 -27
-74 -13 -44 -31 -77 -56 -103 -35 -38 -37 -38 -112 -38 -67 0 -78 -3 -91 -22
-22 -31 -20 -64 5 -89 21 -21 28 -21 138 -15 64 3 193 9 286 12 201 7 215 13
215 78 0 61 -24 72 -118 56 -106 -18 -133 7 -114 106 12 59 59 220 72 244 12
23 32 26 248 41 182 12 183 12 204 -9 29 -28 90 -194 95 -258 6 -65 -8 -76
-98 -85 -86 -8 -119 -28 -119 -73 0 -20 8 -40 20 -51 18 -16 28 -17 107 -6 49
6 171 18 272 26 101 9 192 20 202 25 47 26 63 85 29 115 -16 14 -28 16 -62 10
-71 -12 -119 -7 -144 16 -12 11 -36 53 -54 92 -43 98 -46 104 -69 169 -11 31
-29 76 -40 100 -11 23 -34 81 -51 128 -17 47 -34 94 -39 105 -18 40 -81 203
-131 339 -61 165 -73 190 -102 210 -27 19 -74 20 -106 3z m71 -199 c8 -18 20
-53 26 -78 7 -25 16 -54 21 -65 17 -40 110 -341 110 -357 0 -10 -8 -21 -17
-27 -22 -11 -290 -34 -303 -26 -13 8 -13 67 -1 97 12 28 31 95 71 248 35 131
61 222 67 233 7 12 12 8 26 -25z"/>
<path d="M151 1621 c-16 -16 -20 -28 -15 -49 12 -48 21 -52 115 -52 97 0 128
-15 130 -62 4 -70 -4 -667 -10 -802 -7 -152 -9 -159 -32 -177 -29 -23 -59 -23
-123 -4 -62 19 -71 19 -90 -1 -22 -21 -20 -66 4 -97 17 -21 31 -26 88 -32 111
-10 290 -35 405 -56 100 -19 110 -19 132 -5 30 20 41 59 27 91 -13 28 -74 48
-119 39 -16 -3 -48 -1 -71 5 -71 20 -72 26 -72 373 0 457 10 701 26 687 8 -6
14 -15 14 -20 0 -5 29 -70 65 -144 36 -75 65 -138 65 -140 0 -2 22 -50 49
-107 74 -157 94 -202 160 -351 33 -76 71 -161 84 -190 13 -29 35 -77 48 -107
62 -141 91 -170 169 -170 87 0 127 49 136 168 3 37 6 281 7 542 2 403 4 478
17 498 19 29 82 46 142 38 45 -6 98 7 84 21 -3 4 -2 11 4 17 6 8 4 21 -3 36
l-13 25 -209 2 c-116 1 -223 4 -240 8 -16 3 -57 9 -90 11 -53 5 -63 3 -87 -18
-35 -29 -35 -51 -2 -77 21 -16 40 -20 110 -19 93 0 129 -14 139 -55 3 -12 4
-249 3 -527 l-3 -505 -33 70 c-18 39 -38 78 -43 88 -6 10 -27 57 -48 105 -54
121 -127 280 -216 467 -117 246 -140 295 -170 360 -18 41 -46 82 -65 98 -31
26 -39 28 -109 27 -42 -1 -135 1 -207 5 -126 8 -132 7 -153 -14z"/>
<path d="M3420 614 c-52 -37 -60 -54 -60 -122 0 -60 2 -66 34 -98 40 -40 75
-44 123 -14 71 43 80 147 19 223 -21 27 -85 33 -116 11z m96 -12 c44 -30 58
-120 27 -173 -51 -86 -173 -44 -173 59 0 49 13 79 44 104 21 18 82 24 102 10z"/>
<path d="M3443 554 c-16 -7 -18 -114 -2 -114 5 0 8 3 6 8 -3 4 -1 16 2 26 7
18 9 17 34 -10 19 -20 27 -24 27 -13 0 9 -3 19 -7 23 -5 4 -8 24 -8 44 0 30
-4 37 -20 39 -11 1 -26 -1 -32 -3z m44 -20 c6 -16 -12 -34 -34 -34 -7 0 -13 9
-13 19 0 18 12 28 33 30 4 1 10 -6 14 -15z"/>
<path d="M110 100 c0 -5 5 -10 10 -10 6 0 10 5 10 10 0 6 -4 10 -10 10 -5 0
-10 -4 -10 -10z"/>
<path d="M170 101 c0 -6 4 -12 9 -15 5 -3 7 -24 4 -46 -3 -23 -2 -40 4 -40 11
0 26 87 17 101 -7 12 -34 12 -34 0z"/>
<path d="M0 80 c0 -5 3 -9 8 -9 25 4 32 -4 32 -36 0 -19 5 -35 10 -35 17 0 12
77 -6 84 -24 9 -44 7 -44 -4z"/>
<path d="M3602 81 c-8 -5 -12 -19 -9 -32 l4 -24 8 23 c9 27 35 29 35 3 0 -17
-25 -36 -42 -33 -5 1 -8 -2 -8 -6 0 -4 16 -8 35 -8 34 0 35 1 35 37 0 44 -25
61 -58 40z"/>
<path d="M90 70 c0 -5 5 -10 10 -10 6 0 10 -14 10 -31 0 -19 4 -29 12 -27 15
5 19 37 7 60 -10 19 -39 25 -39 8z"/>
<path d="M260 65 c11 -14 7 -19 -12 -16 -12 2 -9 -12 6 -31 20 -27 26 -22 26
22 0 30 -4 40 -16 40 -14 0 -14 -3 -4 -15z"/>
<path d="M3352 60 c-12 -20 -8 -60 6 -60 4 0 12 11 19 25 6 14 7 25 3 25 -5 0
-10 7 -12 15 -2 12 -6 11 -16 -5z"/>
<path d="M3095 61 c-25 -5 -27 -8 -12 -14 13 -5 16 -13 12 -27 -4 -11 -2 -20
4 -20 6 0 13 11 17 25 3 14 13 25 21 25 8 0 11 5 8 10 -3 6 -9 9 -13 9 -4 -1
-20 -4 -37 -8z"/>
<path d="M3166 61 c-4 -5 -2 -12 3 -15 5 -4 12 -2 15 3 4 5 2 12 -3 15 -5 4
-12 2 -15 -3z"/>
<path d="M3490 61 c0 -6 9 -11 19 -11 14 0 21 -9 24 -27 4 -21 4 -19 3 7 -1
28 -5 36 -23 38 -13 2 -23 -1 -23 -7z"/>
<path d="M2995 50 c-16 -4 -22 -8 -13 -9 9 0 20 -10 23 -21 3 -11 11 -20 17
-20 5 0 7 7 4 15 -3 9 1 18 9 21 18 7 20 24 3 23 -7 -1 -26 -5 -43 -9z"/>
<path d="M3447 30 c10 -42 17 -42 28 2 6 23 4 27 -14 25 -16 -1 -19 -6 -14
-27z"/>
<path d="M310 23 c0 -14 22 -20 79 -21 39 -1 42 0 25 12 -26 18 -104 25 -104
9z"/>
<path d="M3246 24 c-4 -9 -3 -20 0 -23 4 -3 9 0 11 7 6 16 40 16 46 0 2 -7 8
-10 12 -6 4 4 5 14 2 23 -9 21 -63 20 -71 -1z"/>
<path d="M620 9 c0 -5 5 -7 10 -4 6 3 10 8 10 11 0 2 -4 4 -10 4 -5 0 -10 -5
-10 -11z"/>
<path d="M3155 10 c-3 -5 3 -10 14 -10 12 0 21 5 21 10 0 6 -6 10 -14 10 -8 0
-18 -4 -21 -10z"/>
<path d="M458 3 c6 -2 18 -2 25 0 6 3 1 5 -13 5 -14 0 -19 -2 -12 -5z"/>
</g>
</svg>
